<svg xmlns="http://www.w3.org/2000/svg" viewBox="0 0 469.71 76.26"><defs><style>.cls-1{fill:#fff;}</style></defs><title>Asset 11</title><g id="Layer_2" data-name="Layer 2"><g id="Layer_1-2" data-name="Layer 1"><path class="cls-1" d="M29.62,5.16c1.24,0,4.93-.29,5.9.49.82.66,1.18,3.8,1.36,4.77,2.27,14.37,1.7,29.7-4,43.25-2.73,6.14-7.46,13.18-13.17,16.27A45.71,45.71,0,0,1,.1,75.78c-.27-4.67.28-9,.28-13.73,0-2.24-.62-4.17-.28-6.43a37.74,37.74,0,0,0,0-7.21c4.45,0,8.54-.41,11.81-4.19,2.7-3.11,4.6-8.24,5.72-12.27,1.21-4.35.73-9.26,1-13.73a114.82,114.82,0,0,0-.18-13.74A85.44,85.44,0,0,0,29.62,5.16Z"/><path class="cls-1" d="M82.21,17.73c5,3.77,6.9,10.52,7.63,17,1.21,10.74-.81,23.43-9.72,30-8.07,5.95-21.91,7.14-29.52.88-8.13-6.7-10-20.83-7.08-31.47A37.42,37.42,0,0,1,51,20.36c1.63-1.85,3.55-4.15,5.63-5.26a22.36,22.36,0,0,1,8-2.15C69.71,12.54,77.05,13.83,82.21,17.73Z"/><path class="cls-1" d="M106.1,31.46c6.72,0,13.35-.58,20.08-.58-.19-4.19.17-8.37.09-12.57,0-1.71.09-3.69.18-5.36,0-.83-.27-3.11.09-3.79.45-.87.56-.52,1.82-.59,7.47-.43,15.25.39,23,.1.13,16-.47,32-1.18,47.93-.17,4-.27,7.79-.27,11.68a35.65,35.65,0,0,1-.18,6.14c-.21,1.12.17,1.2-.64,1.66s-3,0-3.72,0c-3.05-.21-6.36-.3-9.81-.3-1.45,0-3.13,0-4.72,0a12.07,12.07,0,0,1-3.18-.29c-1.45-.58-1.07,0-1.18-2-.23-4-.27-8.09-.27-12.18,0-4.48-.73-9.06-.73-13.54-4.09.29-8.28,1-12.35,1.27-3.72.28-3.38-.49-3.82,3.5a53.92,53.92,0,0,1-1,6c-.82,4.39-1.72,8.58-2.27,13-.18,1.07-.18,3.21-.54,4-.73.88-1,.59-2.37.59-2.18,0-4.36.09-6.54.09C96.65,65.26,96,54.35,96,43.44c0-2.62-.59-5.1-.64-7.69,0-2.78.09-5.56,0-8.18-.18-5.55-.77-11-.72-16.56,0-2.42-.23-2.52,1.81-2.73a27,27,0,0,1,3.82,0c2.95.14,6,.58,9,.58C108.19,16.27,106.92,23.87,106.1,31.46Z"/><path class="cls-1" d="M185.49,58.64c-2.72-2.14-4.91-4.87-7.45-7.11s-5.08-4.09-7.54-6.62c.46,7.2,0,14.32,0,21.62,0,1.75,0,3.53-.09,5.46-.15,2.7.36,3.5-1.9,3.89a21.22,21.22,0,0,1-4.91,0c-.94,0-2.66.11-3.45-.29-1.23-.63-.49.5-.91-1.17-.38-1.51.16-3.87,0-5.55-.18-2-.43-4.12-.45-6.24,0-3.65.32-7.25.45-10.81S159.09,44.48,159,41c-.14-4,.36-7.89.36-11.88,0-8.28-.36-16.66-.27-24.94,4.27,5.84,9,11.11,13.26,16.75s8.72,11.59,13.35,17C184,26.26,182.44,14.63,180.59,3c7.9.29,15.71-1.46,23.61-1.66-.27,4.68-.81,9.36-1,14-.09,2.24.23,4.33.19,6.43-.06,2.57-.68,5-.82,7.6-.52,9.06-.54,18.67-1.27,27.76a110.62,110.62,0,0,0-.55,14.9C195.57,67.6,190.94,62.73,185.49,58.64Z"/><path class="cls-1" d="M256.8,26.2c-2.61.89-3.42,1.24-4.54,4-.86,2.12-.25,3,1.54,5.06,2.27,2.6,5.46,4.33,8.18,6.43a30.72,30.72,0,0,1,7.63,8.48A15.14,15.14,0,0,1,271,61.76c-1.13,4.42-3.85,7-7.36,9.15a23.52,23.52,0,0,1-10.35,3.51c-4,.16-7.81.58-11.72.58a18.75,18.75,0,0,1-3.18,0c-1.86-.32-1.24.46-1.72-1.16-.59-2-.17-5.38-.28-7.41a99.46,99.46,0,0,0-1.09-13.34C238.63,52.7,243,53,246,51c3.54-2.31,5.9-6.14,4-10.61-1.37-3.22-5.36-5.19-7.63-7.51-3-3-5.67-5.86-6.72-10.22-.93-3.87-1.33-7.18-.09-11.11A15.46,15.46,0,0,1,243,2.44c6.27-3.51,14.9-2.83,21.44-.49,3.09,1.07,3.91.49,3.91,4,0,2.15-.37,4.39-.37,6.53,0,4.87-.18,9.54,0,14.22C264.25,25.91,260.42,25,256.8,26.2Z"/><path class="cls-1" d="M292.41,8.86c6.43.77,13.26,1,19.62,2.05,1,.1,7.9,1,8.45,1.56,1.09,1.36-.32,7.06-.37,8.76,0,1.14.64,8.09-.27,8.77-1.27,1.07-7.45-.78-8.9-.87-.77-.05-3.91-.25-4.45.29s.07,3.82,0,4.67c-.25,3.14-.39,6.5-.55,9.65-.31,6.2-1.09,12.86-1.09,19.19,0,1.56,1.18,8.47,0,9.64-.82.88-7,.93-8.35,1-1.05,0-7.45.78-8.18,0-1.36-1.17.55-7.59.73-9.05.63-6.14.41-12.61.91-18.71s.45-12.56,1.09-18.8c-6.09.1-12.27-.87-18.35-.78.36-6.72.09-13.44.09-20.16C279.24,7.5,286,8.1,292.41,8.86Z"/><path class="cls-1" d="M362.72,17.73c5,3.77,6.9,10.52,7.63,17,1.21,10.74-.81,23.43-9.72,30-8.07,6-21.91,7.14-29.52.88-8.14-6.7-10-20.83-7.09-31.47a37.71,37.71,0,0,1,7.45-13.73c1.63-1.85,3.56-4.15,5.63-5.26a22.36,22.36,0,0,1,8-2.15C350.21,12.54,357.56,13.83,362.72,17.73Z"/><path class="cls-1" d="M414.85,67.31c-4.63,1.75-9.26,3.8-13.89,5.55-1.36.59-2.64,1.41-3.45.68s-1.37-2.92-1.64-3.89c-1.09-2.63-2-5.46-3-8.09-1.63-4.18-3.27-8.47-4.9-12.56.27,3.41.45,6.72.73,10.23.36,4.67,1.18,9.35,1.63,14.22-5.09.09-10.08.39-15.17,1,.27-11.4.16-22.93.55-34.19.2-5.78-.38-11.7-.09-17.53A147.81,147.81,0,0,0,375.34,6c5-.58,10.73-.67,15.63.78,9.06,2.68,17.47,10.4,15.71,20.55-1,5.79-4.81,10.42-9.45,13.64C403.15,49.75,409.08,58.48,414.85,67.31Z"/><path class="cls-1" d="M469.71,7.79c-1.09,6.14-2.72,11.32-6.26,16.37a25.59,25.59,0,0,1-12.81,9.64,4.63,4.63,0,0,1-1.18.29q1.86,20,4.09,39.94c-8.9-.78-17.89-1.17-26.88-1.66,1.84-9.66,3.78-19.32,5.44-29,.46-2.54.82-4.87,1.37-7.31,0-.29.18-1.07.18-1.75A30.8,30.8,0,0,1,421.12,25c-4-4.76-5.63-11.78-7.08-17.82,9.26.49,18.58.34,27.79.49S460.45,8.28,469.71,7.79Z"/></g></g></svg>